<?xml version="1.0" encoding="UTF-8"?>
<svg xmlns="http://www.w3.org/2000/svg" version="1.1" viewBox="0 0 792 612">
  <!-- Generator: Adobe Illustrator 29.4.0, SVG Export Plug-In . SVG Version: 2.1.0 Build 152)  -->
  <defs>
    <style>
      .st0 {
        fill: #231f20;
        stroke: #231f20;
        stroke-miterlimit: 10;
      }

      .st1 {
        display: none;
      }
    </style>
  </defs>
  <g id="Layer_2" class="st1">
    <rect class="st0" x="-.75" width="792" height="612"/>
  </g>
  <g id="Layer_1">
    <path class="st0" d="M214.58,440.24c-41.14,0-82.29-.07-123.43.1-4.99.02-8.13-1.41-10.4-5.97-2.86-5.75-6.1-11.37-9.69-16.7-2.8-4.16-2.73-7.53-.2-11.87,22.33-38.35,44.46-76.82,66.63-115.27,18.87-32.72,37.82-65.39,56.49-98.22,3.01-5.29,6.35-8.08,12.73-7.43,5.69.58,11.53.51,17.24.01,5.54-.48,8.53,1.87,11.16,6.47,24.39,42.59,48.96,85.09,73.48,127.61,16.79,29.1,33.54,58.21,50.46,87.24,2.18,3.75,2.51,6.79.08,10.56-3.77,5.84-7.28,11.88-10.45,18.07-2.14,4.18-5.11,5.49-9.63,5.48-41.49-.12-82.99-.07-124.48-.07ZM144.3,346.69c-16.17,28-31.86,55.16-48,83.1,3.49,0,5.74,0,8,0,56.84,0,113.68,0,170.53,0,20.05,0,40.1.03,60.15-.07,1.75,0,4.24-.36,5.09-1.51,2.51-3.41,4.36-7.3,6.87-11.7-2.98,0-4.87,0-6.76,0-31.73,0-63.47.01-95.2,0-8.6,0-10.38-3.09-6.09-10.5,8.36-14.47,16.75-28.93,25.07-43.43.72-1.25,1.76-3.14,1.31-4.1-1.87-3.94-4.26-7.64-6.76-11.95-1.57,2.65-2.66,4.42-3.7,6.23-11.38,19.76-22.82,39.49-34.08,59.32-1.88,3.31-4.12,4.53-7.92,4.51-27.2-.14-54.4-.07-81.6-.08-8.95,0-10.7-3-6.23-10.75,8.25-14.33,16.58-28.62,24.75-43,.82-1.45,1.54-3.75.96-5.06-1.6-3.6-3.91-6.89-6.37-11.02ZM87.38,423.73c1.06-1.73,1.98-3.15,2.82-4.61,16.13-27.88,32.24-55.77,48.39-83.64,3.72-6.41,7.73-6.4,11.45,0,8.5,14.6,16.9,29.25,25.43,43.83.8,1.37,2.12,3.29,3.36,3.42,4.16.43,8.38.16,13.25.16-1.45-2.64-2.34-4.32-3.29-5.96-11.2-19.47-22.3-39-33.71-58.35-2.56-4.34-2.45-7.72.07-12.02,13.31-22.67,26.34-45.51,39.48-68.28,5.07-8.79,8.54-8.7,13.69.25,8,13.88,15.97,27.77,24.07,41.59.87,1.49,2.4,3.42,3.83,3.61,3.88.5,7.87.17,12.99.17-16.15-28.04-31.73-55.09-47.67-82.76-1.27,1.96-2.25,3.34-3.09,4.79-37.51,64.99-75.01,130-112.51,195q-6.34,11,.43,21.89c.09.14.25.24.99.91ZM346.39,405.94c-1.07-1.98-1.83-3.48-2.67-4.93-14.7-25.49-29.41-50.96-44.1-76.45-23.89-41.47-47.75-82.96-71.68-124.41-.99-1.71-2.41-4.16-3.91-4.38-4.11-.61-8.38-.21-13.38-.21,1.56,2.84,2.53,4.67,3.56,6.45,15.74,27.29,31.49,54.57,47.22,81.86,4.23,7.34,2.34,10.68-6.09,10.7-16.56.04-33.13-.03-49.69.08-1.75.01-4.23.36-5.09,1.5-2.44,3.26-4.23,7.02-6.7,11.34,2.89,0,4.76,0,6.64,0,22.67.01,45.33.18,68-.09,4.91-.06,7.58,1.68,9.91,5.78,13.24,23.31,26.69,46.49,40.05,69.73,4.14,7.2,2.14,10.53-6.36,10.54-16.56.02-33.13-.04-49.69.08-1.67.01-4.01.57-4.88,1.73-2.35,3.13-4.08,6.72-6.36,10.67h95.23ZM249.34,341.12c-4.66,0-8.16-.31-11.57.13-1.71.22-3.91,1.43-4.76,2.86-8.15,13.73-16.08,27.59-23.96,41.48-.64,1.14-1.06,3.03-.55,4.08,1.78,3.67,4,7.11,6.4,11.23,11.58-20.1,22.71-39.42,34.44-59.78ZM166.9,307.49c4.82,0,8.6.24,12.32-.12,1.39-.13,3.16-1.36,3.89-2.6,8.12-13.8,16.11-27.68,24.02-41.6.66-1.17,1.12-3.1.61-4.17-1.74-3.65-3.95-7.08-6.37-11.27-11.61,20.14-22.77,39.49-34.46,59.76ZM167.03,317.98c11.72,20.34,22.85,39.65,34.33,59.58,2.3-3.94,4.35-6.97,5.83-10.26.64-1.42.72-3.74-.02-5.05-7.82-13.93-15.8-27.76-23.89-41.53-.72-1.23-2.45-2.48-3.82-2.62-3.76-.36-7.57-.12-12.43-.12ZM306.31,382.93c-11.79-20.44-22.99-39.87-34.45-59.74-2.12,3.67-4.13,6.56-5.47,9.74-.68,1.61-.87,4.11-.08,5.55,7.76,13.99,15.72,27.86,23.78,41.67.73,1.24,2.44,2.53,3.81,2.67,3.76.36,7.58.13,12.42.13ZM194.21,318.2c1.97,3.44,3.38,6.63,5.47,9.29,1.16,1.48,3.41,2.92,5.19,2.95,15.49.26,30.99.24,46.49.18,1.59,0,3.89-.31,4.63-1.35,2.35-3.31,4.11-7.02,6.37-11.07h-68.15ZM137.8,405.92h67.63c-1.58-2.77-3.14-4.87-4.03-7.23-1.71-4.51-4.8-5.46-9.35-5.34-12.03.32-24.15,1.01-36.07-.17-10.04-.99-15.11,3.13-18.16,11.68-.05.14,0,.32,0,1.05ZM214.82,354.19c2.63-4.56,4.92-8.52,7.35-12.73h-14.64c2.49,4.34,4.62,8.07,7.29,12.73ZM165.17,382.66c-2.59-4.45-4.82-8.28-7.42-12.76-2.61,4.72-4.74,8.56-7.07,12.76h14.49ZM271.9,369.95c-2.53,4.47-4.75,8.39-7.11,12.56h14.36c-2.56-4.43-4.75-8.24-7.25-12.56ZM222.16,283.69c-2.63-4.54-4.74-8.19-7.31-12.64-2.62,4.57-4.77,8.33-7.24,12.64h14.55Z"/>
    <path class="st0" d="M400.71,84.68c41.14,0,82.29.07,123.43-.1,4.99-.02,8.13,1.41,10.4,5.97,2.86,5.75,6.1,11.37,9.69,16.7,2.8,4.16,2.73,7.53.2,11.87-22.33,38.35-44.46,76.82-66.63,115.27-18.87,32.72-37.82,65.39-56.49,98.22-3.01,5.29-6.35,8.08-12.73,7.43-5.69-.58-11.53-.51-17.24-.01-5.54.48-8.53-1.87-11.16-6.47-24.39-42.59-48.96-85.09-73.48-127.61-16.79-29.1-33.54-58.21-50.46-87.24-2.18-3.75-2.51-6.79-.08-10.56,3.77-5.84,7.28-11.88,10.45-18.07,2.14-4.18,5.11-5.49,9.63-5.48,41.49.12,82.99.07,124.48.07ZM470.99,178.24c16.17-28,31.86-55.16,48-83.1-3.49,0-5.74,0-8,0-56.84,0-113.68,0-170.53,0-20.05,0-40.1-.03-60.15.07-1.75,0-4.24.36-5.09,1.51-2.51,3.41-4.36,7.3-6.87,11.7,2.98,0,4.87,0,6.76,0,31.73,0,63.47-.01,95.2,0,8.6,0,10.38,3.09,6.09,10.5-8.36,14.47-16.75,28.93-25.07,43.43-.72,1.25-1.76,3.14-1.31,4.1,1.87,3.94,4.26,7.64,6.76,11.95,1.57-2.65,2.66-4.42,3.7-6.23,11.38-19.76,22.82-39.49,34.08-59.32,1.88-3.31,4.12-4.53,7.92-4.51,27.2.14,54.4.07,81.6.08,8.95,0,10.7,3,6.23,10.75-8.25,14.33-16.58,28.62-24.75,43-.82,1.45-1.54,3.75-.96,5.06,1.6,3.6,3.91,6.89,6.37,11.02ZM527.91,101.19c-1.06,1.73-1.98,3.15-2.82,4.61-16.13,27.88-32.24,55.77-48.39,83.64-3.72,6.41-7.73,6.4-11.45,0-8.5-14.6-16.9-29.25-25.43-43.83-.8-1.37-2.12-3.29-3.36-3.42-4.16-.43-8.38-.16-13.25-.16,1.45,2.64,2.34,4.32,3.29,5.96,11.2,19.47,22.3,39,33.71,58.35,2.56,4.34,2.45,7.72-.07,12.02-13.31,22.67-26.34,45.51-39.48,68.28-5.07,8.79-8.54,8.7-13.69-.25-8-13.88-15.97-27.77-24.07-41.59-.87-1.49-2.4-3.42-3.83-3.61-3.88-.5-7.87-.17-12.99-.17,16.15,28.04,31.73,55.09,47.67,82.76,1.27-1.96,2.25-3.34,3.09-4.79,37.51-64.99,75.01-130,112.51-195q6.34-11-.43-21.89c-.09-.14-.25-.24-.99-.91ZM268.9,118.98c1.07,1.98,1.83,3.48,2.67,4.93,14.7,25.49,29.41,50.96,44.1,76.45,23.89,41.47,47.75,82.96,71.68,124.41.99,1.71,2.41,4.16,3.91,4.38,4.11.61,8.38.21,13.38.21-1.56-2.84-2.53-4.67-3.56-6.45-15.74-27.29-31.49-54.57-47.22-81.86-4.23-7.34-2.34-10.68,6.09-10.7,16.56-.04,33.13.03,49.69-.08,1.75-.01,4.23-.36,5.09-1.5,2.44-3.26,4.23-7.02,6.7-11.34-2.89,0-4.76,0-6.64,0-22.67-.01-45.33-.18-68,.09-4.91.06-7.58-1.68-9.91-5.78-13.24-23.31-26.69-46.49-40.05-69.73-4.14-7.2-2.14-10.53,6.36-10.54,16.56-.02,33.13.04,49.69-.08,1.67-.01,4.01-.57,4.88-1.73,2.35-3.13,4.08-6.72,6.36-10.67h-95.23ZM365.95,183.81c4.66,0,8.16.31,11.57-.13,1.71-.22,3.91-1.43,4.76-2.86,8.15-13.73,16.08-27.59,23.96-41.48.64-1.14,1.06-3.03.55-4.08-1.78-3.67-4-7.11-6.4-11.23-11.58,20.1-22.71,39.42-34.44,59.78ZM448.39,217.44c-4.82,0-8.6-.24-12.32.12-1.39.13-3.16,1.36-3.89,2.6-8.12,13.8-16.11,27.68-24.02,41.6-.66,1.17-1.12,3.1-.61,4.17,1.74,3.65,3.95,7.08,6.37,11.27,11.61-20.14,22.77-39.49,34.46-59.76ZM448.27,206.94c-11.72-20.34-22.85-39.65-34.33-59.58-2.3,3.94-4.35,6.97-5.83,10.26-.64,1.42-.72,3.74.02,5.05,7.82,13.93,15.8,27.76,23.89,41.53.72,1.23,2.45,2.48,3.82,2.62,3.76.36,7.57.12,12.43.12ZM308.99,141.99c11.79,20.44,22.99,39.87,34.45,59.74,2.12-3.67,4.13-6.56,5.47-9.74.68-1.61.87-4.11.08-5.55-7.76-13.99-15.72-27.86-23.78-41.67-.73-1.24-2.44-2.53-3.81-2.67-3.76-.36-7.58-.13-12.42-.13ZM421.08,206.72c-1.97-3.44-3.38-6.63-5.47-9.29-1.16-1.48-3.41-2.92-5.19-2.95-15.49-.26-30.99-.24-46.49-.18-1.59,0-3.89.31-4.63,1.35-2.35,3.31-4.11,7.02-6.37,11.07h68.15ZM477.49,119h-67.63c1.58,2.77,3.14,4.87,4.03,7.23,1.71,4.51,4.8,5.46,9.35,5.34,12.03-.32,24.15-1.01,36.07.17,10.04.99,15.11-3.13,18.16-11.68.05-.14,0-.32,0-1.05ZM400.47,170.73c-2.63,4.56-4.92,8.52-7.35,12.73h14.64c-2.49-4.34-4.62-8.07-7.29-12.73ZM450.12,142.26c2.59,4.45,4.82,8.28,7.42,12.76,2.61-4.72,4.74-8.56,7.07-12.76h-14.49ZM343.39,154.97c2.53-4.47,4.75-8.39,7.11-12.56h-14.36c2.56,4.43,4.75,8.24,7.25,12.56ZM393.13,241.23c2.63,4.54,4.74,8.19,7.31,12.64,2.62-4.57,4.77-8.33,7.24-12.64h-14.55Z"/>
    <path class="st0" d="M584.54,442.76c-41.14,0-82.29-.07-123.43.1-4.99.02-8.13-1.41-10.4-5.97-2.86-5.75-6.1-11.37-9.69-16.7-2.8-4.16-2.73-7.53-.2-11.87,22.33-38.35,44.46-76.82,66.63-115.27,18.87-32.72,37.82-65.39,56.49-98.22,3.01-5.29,6.35-8.08,12.73-7.43,5.69.58,11.53.51,17.24.01,5.54-.48,8.53,1.87,11.16,6.47,24.39,42.59,48.96,85.09,73.48,127.61,16.79,29.1,33.54,58.21,50.46,87.24,2.18,3.75,2.51,6.79.08,10.56-3.77,5.84-7.28,11.88-10.45,18.07-2.14,4.18-5.11,5.49-9.63,5.48-41.49-.12-82.99-.07-124.48-.07ZM514.26,349.21c-16.17,28-31.86,55.16-48,83.1,3.49,0,5.74,0,8,0,56.84,0,113.68,0,170.53,0,20.05,0,40.1.03,60.15-.07,1.75,0,4.24-.36,5.09-1.51,2.51-3.41,4.36-7.3,6.87-11.7-2.98,0-4.87,0-6.76,0-31.73,0-63.47.01-95.2,0-8.6,0-10.38-3.09-6.09-10.5,8.36-14.47,16.75-28.93,25.07-43.43.72-1.25,1.76-3.14,1.31-4.1-1.87-3.94-4.26-7.64-6.76-11.95-1.57,2.65-2.66,4.42-3.7,6.23-11.38,19.76-22.82,39.49-34.08,59.32-1.88,3.31-4.12,4.53-7.92,4.51-27.2-.14-54.4-.07-81.6-.08-8.95,0-10.7-3-6.23-10.75,8.25-14.33,16.58-28.62,24.75-43,.82-1.45,1.54-3.75.96-5.06-1.6-3.6-3.91-6.89-6.37-11.02ZM457.34,426.25c1.06-1.73,1.98-3.15,2.82-4.61,16.13-27.88,32.24-55.77,48.39-83.64,3.72-6.41,7.73-6.4,11.45,0,8.5,14.6,16.9,29.25,25.43,43.83.8,1.37,2.12,3.29,3.36,3.42,4.16.43,8.38.16,13.25.16-1.45-2.64-2.34-4.32-3.29-5.96-11.2-19.47-22.3-39-33.71-58.35-2.56-4.34-2.45-7.72.07-12.02,13.31-22.67,26.34-45.51,39.48-68.28,5.07-8.79,8.54-8.7,13.69.25,8,13.88,15.97,27.77,24.07,41.59.87,1.49,2.4,3.42,3.83,3.61,3.88.5,7.87.17,12.99.17-16.15-28.04-31.73-55.09-47.67-82.76-1.27,1.96-2.25,3.34-3.09,4.79-37.51,64.99-75.01,130-112.51,195q-6.34,11,.43,21.89c.09.14.25.24.99.91ZM716.35,408.46c-1.07-1.98-1.83-3.48-2.67-4.93-14.7-25.49-29.41-50.96-44.1-76.45-23.89-41.47-47.75-82.96-71.68-124.41-.99-1.71-2.41-4.16-3.91-4.38-4.11-.61-8.38-.21-13.38-.21,1.56,2.84,2.53,4.67,3.56,6.45,15.74,27.29,31.49,54.57,47.22,81.86,4.23,7.34,2.34,10.68-6.09,10.7-16.56.04-33.13-.03-49.69.08-1.75.01-4.23.36-5.09,1.5-2.44,3.26-4.23,7.02-6.7,11.34,2.89,0,4.76,0,6.64,0,22.67.01,45.33.18,68-.09,4.91-.06,7.58,1.68,9.91,5.78,13.24,23.31,26.69,46.49,40.05,69.73,4.14,7.2,2.14,10.53-6.36,10.54-16.56.02-33.13-.04-49.69.08-1.67.01-4.01.57-4.88,1.73-2.35,3.13-4.08,6.72-6.36,10.67h95.23ZM619.3,343.64c-4.66,0-8.16-.31-11.57.13-1.71.22-3.91,1.43-4.76,2.86-8.15,13.73-16.08,27.59-23.96,41.48-.64,1.14-1.06,3.03-.55,4.08,1.78,3.67,4,7.11,6.4,11.23,11.58-20.1,22.71-39.42,34.44-59.78ZM536.86,310.01c4.82,0,8.6.24,12.32-.12,1.39-.13,3.16-1.36,3.89-2.6,8.12-13.8,16.11-27.68,24.02-41.6.66-1.17,1.12-3.1.61-4.17-1.74-3.65-3.95-7.08-6.37-11.27-11.61,20.14-22.77,39.49-34.46,59.76ZM536.98,320.5c11.72,20.34,22.85,39.65,34.33,59.58,2.3-3.94,4.35-6.97,5.83-10.26.64-1.42.72-3.74-.02-5.05-7.82-13.93-15.8-27.76-23.89-41.53-.72-1.23-2.45-2.48-3.82-2.62-3.76-.36-7.57-.12-12.43-.12ZM676.27,385.45c-11.79-20.44-22.99-39.87-34.45-59.74-2.12,3.67-4.13,6.56-5.47,9.74-.68,1.61-.87,4.11-.08,5.55,7.76,13.99,15.72,27.86,23.78,41.67.73,1.24,2.44,2.53,3.81,2.67,3.76.36,7.58.13,12.42.13ZM564.17,320.72c1.97,3.44,3.38,6.63,5.47,9.29,1.16,1.48,3.41,2.92,5.19,2.95,15.49.26,30.99.24,46.49.18,1.59,0,3.89-.31,4.63-1.35,2.35-3.31,4.11-7.02,6.37-11.07h-68.15ZM507.76,408.44h67.63c-1.58-2.77-3.14-4.87-4.03-7.23-1.71-4.51-4.8-5.46-9.35-5.34-12.03.32-24.15,1.01-36.07-.17-10.04-.99-15.11,3.13-18.16,11.68-.05.14,0,.32,0,1.05ZM584.78,356.71c2.63-4.56,4.92-8.52,7.35-12.73h-14.64c2.49,4.34,4.62,8.07,7.29,12.73ZM535.13,385.18c-2.59-4.45-4.82-8.28-7.42-12.76-2.61,4.72-4.74,8.56-7.07,12.76h14.49ZM641.86,372.47c-2.53,4.47-4.75,8.39-7.11,12.56h14.36c-2.56-4.43-4.75-8.24-7.25-12.56ZM592.12,286.21c-2.63-4.54-4.74-8.19-7.31-12.64-2.62,4.57-4.77,8.33-7.24,12.64h14.55Z"/>
  </g>
</svg>